<svg width="200" height="25" viewBox="0 0 200 25" fill="none" xmlns="http://www.w3.org/2000/svg">
<path d="M7.07 20.43C7.73 20.43 8.27 20.38 8.69 20.28C9.13 20.16 9.48 20.01 9.74 19.83C10 19.63 10.18 19.4 10.28 19.14C10.38 18.88 10.43 18.59 10.43 18.27C10.43 17.59 10.11 17.03 9.47 16.59C8.83 16.13 7.73 15.64 6.17 15.12C5.49 14.88 4.81 14.61 4.13 14.31C3.45 13.99 2.84 13.6 2.3 13.14C1.76 12.66 1.32 12.09 0.98 11.43C0.64 10.75 0.47 9.93 0.47 8.97C0.47 8.01 0.65 7.15 1.01 6.39C1.37 5.61 1.88 4.95 2.54 4.41C3.2 3.87 4 3.46 4.94 3.18C5.88 2.88 6.94 2.73 8.12 2.73C9.52 2.73 10.73 2.88 11.75 3.18C12.77 3.48 13.61 3.81 14.27 4.17L12.92 7.86C12.34 7.56 11.69 7.3 10.97 7.08C10.27 6.84 9.42 6.72 8.42 6.72C7.3 6.72 6.49 6.88 5.99 7.2C5.51 7.5 5.27 7.97 5.27 8.61C5.27 8.99 5.36 9.31 5.54 9.57C5.72 9.83 5.97 10.07 6.29 10.29C6.63 10.49 7.01 10.68 7.43 10.86C7.87 11.02 8.35 11.19 8.87 11.37C9.95 11.77 10.89 12.17 11.69 12.57C12.49 12.95 13.15 13.4 13.67 13.92C14.21 14.44 14.61 15.05 14.87 15.75C15.13 16.45 15.26 17.3 15.26 18.3C15.26 20.24 14.58 21.75 13.22 22.83C11.86 23.89 9.81 24.42 7.07 24.42C6.15 24.42 5.32 24.36 4.58 24.24C3.84 24.14 3.18 24.01 2.6 23.85C2.04 23.69 1.55 23.52 1.13 23.34C0.73 23.16 0.39 22.99 0.11 22.83L1.43 19.11C2.05 19.45 2.81 19.76 3.71 20.04C4.63 20.3 5.75 20.43 7.07 20.43ZM33.5309 23.46C32.7709 23.68 31.7909 23.88 30.5909 24.06C29.3909 24.26 28.1309 24.36 26.8109 24.36C25.4709 24.36 24.3509 24.18 23.4509 23.82C22.5709 23.46 21.8709 22.96 21.3509 22.32C20.8309 21.66 20.4609 20.88 20.2409 19.98C20.0209 19.08 19.9109 18.09 19.9109 17.01V8.22H24.3809V16.47C24.3809 17.91 24.5709 18.95 24.9509 19.59C25.3309 20.23 26.0409 20.55 27.0809 20.55C27.4009 20.55 27.7409 20.54 28.1009 20.52C28.4609 20.48 28.7809 20.44 29.0609 20.4V8.22H33.5309V23.46ZM47.897 15.63C47.897 14.19 47.707 13.17 47.327 12.57C46.967 11.97 46.337 11.67 45.437 11.67C45.157 11.67 44.867 11.69 44.567 11.73C44.267 11.75 43.977 11.78 43.697 11.82V24H39.227V8.76C39.607 8.66 40.047 8.56 40.547 8.46C41.067 8.34 41.607 8.24 42.167 8.16C42.747 8.06 43.337 7.99 43.937 7.95C44.537 7.89 45.127 7.86 45.707 7.86C46.847 7.86 47.767 8.01 48.467 8.31C49.187 8.59 49.777 8.93 50.237 9.33C50.877 8.87 51.607 8.51 52.427 8.25C53.267 7.99 54.037 7.86 54.737 7.86C55.997 7.86 57.027 8.04 57.827 8.4C58.647 8.74 59.297 9.23 59.777 9.87C60.257 10.51 60.587 11.27 60.767 12.15C60.947 13.03 61.037 14.01 61.037 15.09V24H56.567V15.63C56.567 14.19 56.377 13.17 55.997 12.57C55.637 11.97 55.007 11.67 54.107 11.67C53.867 11.67 53.527 11.73 53.087 11.85C52.667 11.97 52.317 12.12 52.037 12.3C52.177 12.76 52.267 13.25 52.307 13.77C52.347 14.27 52.367 14.81 52.367 15.39V24H47.897V15.63ZM71.0661 24H66.5961V8.22H71.0661V24ZM71.4861 3.66C71.4861 4.48 71.2161 5.13 70.6761 5.61C70.1561 6.07 69.5361 6.3 68.8161 6.3C68.0961 6.3 67.4661 6.07 66.9261 5.61C66.4061 5.13 66.1461 4.48 66.1461 3.66C66.1461 2.84 66.4061 2.2 66.9261 1.74C67.4661 1.26 68.0961 1.02 68.8161 1.02C69.5361 1.02 70.1561 1.26 70.6761 1.74C71.2161 2.2 71.4861 2.84 71.4861 3.66ZM80.1985 0.989999C80.2385 1.27 80.2685 1.56 80.2885 1.86C80.3085 2.16 80.3185 2.38 80.3185 2.52C80.3185 3.86 80.0785 5.14 79.5985 6.36C79.1185 7.56 78.5285 8.58 77.8285 9.42L74.6785 8.7C75.0585 7.84 75.3585 6.87 75.5785 5.79C75.8185 4.71 75.9385 3.68 75.9385 2.7C75.9385 2.66 75.9385 2.58 75.9385 2.46C75.9385 2.32 75.9285 2.17 75.9085 2.01C75.9085 1.83 75.8985 1.65 75.8785 1.47C75.8785 1.29 75.8685 1.13 75.8485 0.989999H80.1985ZM87.339 20.79C88.159 20.79 88.739 20.71 89.079 20.55C89.419 20.39 89.589 20.08 89.589 19.62C89.589 19.26 89.369 18.95 88.929 18.69C88.489 18.41 87.819 18.1 86.919 17.76C86.219 17.5 85.579 17.23 84.999 16.95C84.439 16.67 83.959 16.34 83.559 15.96C83.159 15.56 82.849 15.09 82.629 14.55C82.409 14.01 82.299 13.36 82.299 12.6C82.299 11.12 82.849 9.95 83.949 9.09C85.049 8.23 86.559 7.8 88.479 7.8C89.439 7.8 90.359 7.89 91.239 8.07C92.119 8.23 92.819 8.41 93.339 8.61L92.559 12.09C92.039 11.91 91.469 11.75 90.849 11.61C90.249 11.47 89.569 11.4 88.809 11.4C87.409 11.4 86.709 11.79 86.709 12.57C86.709 12.75 86.739 12.91 86.799 13.05C86.859 13.19 86.979 13.33 87.159 13.47C87.339 13.59 87.579 13.73 87.879 13.89C88.199 14.03 88.599 14.19 89.079 14.37C90.059 14.73 90.869 15.09 91.509 15.45C92.149 15.79 92.649 16.17 93.009 16.59C93.389 16.99 93.649 17.44 93.789 17.94C93.949 18.44 94.029 19.02 94.029 19.68C94.029 21.24 93.439 22.42 92.259 23.22C91.099 24.02 89.449 24.42 87.309 24.42C85.909 24.42 84.739 24.3 83.799 24.06C82.879 23.82 82.239 23.62 81.879 23.46L82.629 19.83C83.389 20.13 84.169 20.37 84.969 20.55C85.769 20.71 86.559 20.79 87.339 20.79Z" fill="#F5F7FA"/>
<path d="M108.11 24.45C106.77 24.45 105.52 24.21 104.36 23.73C103.22 23.25 102.22 22.55 101.36 21.63C100.52 20.71 99.8495 19.58 99.3495 18.24C98.8695 16.88 98.6295 15.33 98.6295 13.59C98.6295 11.85 98.8895 10.31 99.4095 8.97C99.9495 7.61 100.66 6.47 101.54 5.55C102.42 4.63 103.44 3.94 104.6 3.48C105.76 3 106.97 2.76 108.23 2.76C109.01 2.76 109.72 2.81 110.36 2.91C111 3.01 111.56 3.14 112.04 3.3C112.52 3.44 112.93 3.59 113.27 3.75C113.61 3.89 113.87 4.02 114.05 4.14L113.39 5.91C112.89 5.61 112.25 5.32 111.47 5.04C110.71 4.74 109.76 4.59 108.62 4.59C107.32 4.59 106.18 4.81 105.2 5.25C104.24 5.69 103.43 6.31 102.77 7.11C102.11 7.91 101.61 8.86 101.27 9.96C100.95 11.06 100.79 12.28 100.79 13.62C100.79 15 100.95 16.25 101.27 17.37C101.61 18.47 102.1 19.41 102.74 20.19C103.38 20.97 104.16 21.57 105.08 21.99C106.02 22.41 107.09 22.62 108.29 22.62C109.61 22.62 110.71 22.5 111.59 22.26C112.49 22 113.17 21.74 113.63 21.48L114.2 23.22C114.06 23.32 113.82 23.44 113.48 23.58C113.14 23.7 112.71 23.83 112.19 23.97C111.67 24.11 111.07 24.22 110.39 24.3C109.71 24.4 108.95 24.45 108.11 24.45ZM130.777 23.46C130.197 23.62 129.417 23.8 128.437 24C127.457 24.2 126.257 24.3 124.837 24.3C123.677 24.3 122.707 24.13 121.927 23.79C121.147 23.45 120.517 22.97 120.037 22.35C119.557 21.73 119.207 20.98 118.987 20.1C118.787 19.22 118.687 18.25 118.687 17.19V8.49H120.637V16.56C120.637 17.66 120.717 18.59 120.877 19.35C121.037 20.11 121.297 20.73 121.657 21.21C122.017 21.67 122.477 22.01 123.037 22.23C123.617 22.43 124.317 22.53 125.137 22.53C126.057 22.53 126.857 22.48 127.537 22.38C128.217 22.28 128.647 22.19 128.827 22.11V8.49H130.777V23.46ZM139.397 24H137.447V8.49H139.397V24ZM139.847 3.81C139.847 4.27 139.707 4.64 139.427 4.92C139.147 5.18 138.807 5.31 138.407 5.31C138.007 5.31 137.667 5.18 137.387 4.92C137.107 4.64 136.967 4.27 136.967 3.81C136.967 3.35 137.107 2.99 137.387 2.73C137.667 2.45 138.007 2.31 138.407 2.31C138.807 2.31 139.147 2.45 139.427 2.73C139.707 2.99 139.847 3.35 139.847 3.81ZM149.246 22.62C150.366 22.62 151.286 22.44 152.006 22.08C152.746 21.7 153.116 21.07 153.116 20.19C153.116 19.77 153.046 19.41 152.906 19.11C152.786 18.81 152.576 18.54 152.276 18.3C151.976 18.06 151.576 17.83 151.076 17.61C150.596 17.39 149.996 17.13 149.276 16.83C148.696 16.59 148.146 16.35 147.626 16.11C147.106 15.85 146.646 15.56 146.246 15.24C145.846 14.9 145.526 14.5 145.286 14.04C145.046 13.58 144.926 13.02 144.926 12.36C144.926 11.1 145.396 10.08 146.336 9.3C147.296 8.52 148.606 8.13 150.266 8.13C151.326 8.13 152.196 8.22 152.876 8.4C153.576 8.58 154.066 8.74 154.346 8.88L153.896 10.62C153.656 10.5 153.246 10.34 152.666 10.14C152.106 9.94 151.276 9.84 150.176 9.84C149.736 9.84 149.316 9.89 148.916 9.99C148.536 10.07 148.196 10.21 147.896 10.41C147.596 10.59 147.356 10.83 147.176 11.13C146.996 11.41 146.906 11.76 146.906 12.18C146.906 12.6 146.986 12.96 147.146 13.26C147.306 13.56 147.536 13.83 147.836 14.07C148.156 14.29 148.536 14.5 148.976 14.7C149.436 14.9 149.956 15.12 150.536 15.36C151.136 15.6 151.706 15.85 152.246 16.11C152.806 16.35 153.296 16.65 153.716 17.01C154.136 17.35 154.476 17.77 154.736 18.27C154.996 18.75 155.126 19.36 155.126 20.1C155.126 21.5 154.596 22.56 153.536 23.28C152.496 24 151.066 24.36 149.246 24.36C147.886 24.36 146.846 24.24 146.126 24C145.406 23.78 144.926 23.61 144.686 23.49L145.196 21.72C145.256 21.76 145.386 21.83 145.586 21.93C145.786 22.01 146.056 22.11 146.396 22.23C146.736 22.33 147.136 22.42 147.596 22.5C148.076 22.58 148.626 22.62 149.246 22.62ZM162.348 24H160.398V8.49H162.348V24ZM162.798 3.81C162.798 4.27 162.658 4.64 162.378 4.92C162.098 5.18 161.758 5.31 161.358 5.31C160.958 5.31 160.618 5.18 160.338 4.92C160.058 4.64 159.918 4.27 159.918 3.81C159.918 3.35 160.058 2.99 160.338 2.73C160.618 2.45 160.958 2.31 161.358 2.31C161.758 2.31 162.098 2.45 162.378 2.73C162.658 2.99 162.798 3.35 162.798 3.81ZM169.018 9.03C169.598 8.87 170.378 8.69 171.358 8.49C172.338 8.29 173.538 8.19 174.958 8.19C176.138 8.19 177.118 8.36 177.898 8.7C178.698 9.04 179.328 9.53 179.788 10.17C180.268 10.79 180.608 11.54 180.808 12.42C181.008 13.3 181.108 14.27 181.108 15.33V24H179.158V15.96C179.158 14.86 179.078 13.93 178.918 13.17C178.778 12.41 178.528 11.79 178.168 11.31C177.828 10.83 177.368 10.49 176.788 10.29C176.228 10.07 175.518 9.96 174.658 9.96C173.738 9.96 172.938 10.01 172.258 10.11C171.598 10.21 171.168 10.3 170.968 10.38V24H169.018V9.03ZM186.668 16.23C186.668 14.87 186.858 13.69 187.238 12.69C187.638 11.67 188.148 10.82 188.768 10.14C189.408 9.46 190.128 8.96 190.928 8.64C191.748 8.3 192.588 8.13 193.448 8.13C195.348 8.13 196.858 8.75 197.978 9.99C199.118 11.23 199.688 13.14 199.688 15.72C199.688 15.88 199.678 16.04 199.658 16.2C199.658 16.36 199.648 16.51 199.628 16.65H188.738C188.798 18.55 189.268 20.01 190.148 21.03C191.028 22.05 192.428 22.56 194.348 22.56C195.408 22.56 196.248 22.46 196.868 22.26C197.488 22.06 197.938 21.89 198.218 21.75L198.578 23.43C198.298 23.59 197.768 23.78 196.988 24C196.228 24.22 195.328 24.33 194.288 24.33C192.928 24.33 191.768 24.13 190.808 23.73C189.848 23.33 189.058 22.77 188.438 22.05C187.818 21.33 187.368 20.48 187.088 19.5C186.808 18.5 186.668 17.41 186.668 16.23ZM197.678 15C197.638 13.38 197.258 12.12 196.538 11.22C195.818 10.32 194.798 9.87 193.478 9.87C192.778 9.87 192.148 10.01 191.588 10.29C191.048 10.57 190.568 10.95 190.148 11.43C189.748 11.89 189.428 12.43 189.188 13.05C188.968 13.67 188.838 14.32 188.798 15H197.678Z" fill="#FFBB00"/>
</svg>
